<svg width="171" height="32" viewBox="0 0 171 32" fill="none" xmlns="http://www.w3.org/2000/svg">
<circle cx="8.06009" cy="22.4217" r="8.06009" fill="#FF3B30"/>
<circle cx="56.1276" cy="22.4217" r="8.06009" fill="#FF3B30"/>
<rect x="14.0686" width="25.7923" height="14.3616" rx="7.18081" fill="#FF3B30"/>
<path d="M43.0848 15.8271C40.1539 13.7755 35.6109 14.3616 32.8265 14.3616L39.2746 4.39644C40.2027 6.64349 42.7331 10.6786 45.4296 12.7889C48.1261 14.8992 52.1708 15.534 53.05 14.9478L48.214 23.8872C47.2859 21.7378 46.4054 18.1515 43.0848 15.8271Z" fill="#FF3B30"/>
<path d="M163.338 27.0374C161.712 27.0374 160.3 26.6919 159.101 26.001C157.902 25.2897 156.978 24.294 156.327 23.0138C155.677 21.7335 155.352 20.2399 155.352 18.5329C155.352 16.826 155.677 15.3425 156.327 14.0826C156.978 12.8024 157.892 11.8066 159.071 11.0954C160.27 10.3841 161.662 10.0285 163.247 10.0285C164.791 10.0285 166.142 10.374 167.301 11.0649C168.479 11.7558 169.384 12.7516 170.014 14.0521C170.644 15.3527 170.959 16.9174 170.959 18.7463V19.6303H159.406C159.487 21.0528 159.873 22.1298 160.564 22.8614C161.276 23.5726 162.21 23.9282 163.369 23.9282C164.242 23.9282 164.964 23.7352 165.533 23.3491C166.122 22.9426 166.529 22.3838 166.752 21.6726L170.745 21.9164C170.298 23.5015 169.414 24.7512 168.093 25.6657C166.793 26.5801 165.208 27.0374 163.338 27.0374ZM159.406 17.0089H166.935C166.854 15.688 166.478 14.7126 165.807 14.0826C165.137 13.4323 164.283 13.1072 163.247 13.1072C162.21 13.1072 161.347 13.4425 160.656 14.1131C159.985 14.7837 159.569 15.7489 159.406 17.0089ZM158.553 8.62636L161.418 4.17601H165.319L168.185 8.62636H165.35L163.003 5.39528H163.734L161.387 8.62636H158.553Z" fill="#FF3B30"/>
<path d="M143.578 27.0374C141.871 27.0374 140.499 26.6513 139.463 25.8791C138.427 25.0865 137.908 23.9892 137.908 22.587C137.908 21.1849 138.345 20.0875 139.219 19.295C140.093 18.5025 141.424 17.9335 143.212 17.588L148.607 16.5211C148.607 15.3628 148.343 14.4992 147.815 13.9302C147.287 13.3409 146.504 13.0462 145.468 13.0462C144.533 13.0462 143.791 13.2698 143.243 13.7168C142.714 14.1436 142.349 14.7634 142.145 15.5762L138.183 15.3933C138.508 13.666 139.3 12.3451 140.56 11.4307C141.82 10.4959 143.456 10.0285 145.468 10.0285C147.784 10.0285 149.532 10.6178 150.711 11.7965C151.91 12.9548 152.509 14.6211 152.509 16.7955V22.709C152.509 23.1357 152.58 23.4304 152.722 23.5929C152.885 23.7555 153.119 23.8368 153.424 23.8368H153.942V26.6716C153.82 26.7122 153.617 26.7427 153.332 26.763C153.068 26.7834 152.794 26.7935 152.509 26.7935C151.839 26.7935 151.239 26.6919 150.711 26.4887C150.182 26.2652 149.776 25.8892 149.491 25.3609C149.207 24.8122 149.065 24.0705 149.065 23.1357L149.4 23.3796C149.237 24.0908 148.882 24.7309 148.333 25.2999C147.805 25.8486 147.134 26.2753 146.321 26.5801C145.508 26.885 144.594 27.0374 143.578 27.0374ZM144.37 24.2026C145.244 24.2026 145.996 24.0298 146.626 23.6844C147.256 23.3389 147.744 22.8614 148.089 22.2517C148.435 21.6421 148.607 20.9207 148.607 20.0875V19.1731L144.401 20.0266C143.527 20.2094 142.897 20.4838 142.511 20.8496C142.145 21.195 141.962 21.6523 141.962 22.2212C141.962 22.8512 142.166 23.3389 142.572 23.6844C142.999 24.0298 143.598 24.2026 144.37 24.2026Z" fill="black"/>
<path d="M126.901 31.6096C125.478 31.6096 124.259 31.4166 123.243 31.0305C122.227 30.6444 121.404 30.0957 120.774 29.3845C120.164 28.6935 119.738 27.8909 119.494 26.9764L123.517 26.7021C123.72 27.3117 124.066 27.7893 124.554 28.1347C125.062 28.4802 125.844 28.6529 126.901 28.6529C128.1 28.6529 129.024 28.3786 129.675 27.8299C130.325 27.3015 130.65 26.4684 130.65 25.3304V23.2576C130.264 24.0502 129.644 24.6903 128.791 25.178C127.937 25.6454 126.982 25.8791 125.925 25.8791C124.584 25.8791 123.385 25.5539 122.329 24.9036C121.292 24.233 120.479 23.3084 119.89 22.1298C119.301 20.9308 119.006 19.549 119.006 17.9843C119.006 16.4195 119.29 15.0479 119.859 13.8692C120.449 12.6703 121.262 11.7355 122.298 11.0649C123.334 10.374 124.523 10.0285 125.864 10.0285C127.043 10.0285 128.059 10.2927 128.913 10.821C129.766 11.3494 130.386 12.0505 130.772 12.9243V10.3943H134.582V25.2389C134.582 26.6208 134.257 27.7893 133.607 28.7444C132.977 29.6994 132.083 30.4107 130.924 30.8781C129.786 31.3658 128.445 31.6096 126.901 31.6096ZM126.84 22.8309C127.998 22.8309 128.923 22.4041 129.614 21.5506C130.305 20.6768 130.66 19.4779 130.681 17.9538C130.701 16.9377 130.548 16.0741 130.223 15.3628C129.918 14.6313 129.471 14.0724 128.882 13.6863C128.313 13.2799 127.632 13.0767 126.84 13.0767C125.641 13.0767 124.706 13.5238 124.035 14.4179C123.385 15.2917 123.06 16.4703 123.06 17.9538C123.06 19.4372 123.395 20.626 124.066 21.5202C124.757 22.394 125.681 22.8309 126.84 22.8309Z" fill="black"/>
<path d="M107.425 27.0374C105.779 27.0374 104.469 26.4988 103.493 25.4218C102.538 24.3245 102.061 22.8105 102.061 20.88V10.3943H105.962V19.9046C105.962 21.2661 106.186 22.272 106.633 22.9223C107.1 23.5523 107.801 23.8672 108.736 23.8672C109.793 23.8672 110.606 23.5218 111.175 22.8309C111.764 22.1196 112.059 21.0934 112.059 19.7522V10.3943H115.96V26.6716H112.394L112.303 22.1908L112.79 22.3432C112.546 23.8876 111.967 25.056 111.053 25.8486C110.138 26.6411 108.929 27.0374 107.425 27.0374Z" fill="black"/>
<path d="M97.1512 26.6716C95.9726 26.6716 95.0276 26.3668 94.3164 25.7571C93.6051 25.1475 93.2495 24.1721 93.2495 22.8309V5.0295H97.1512V22.4346C97.1512 22.841 97.2528 23.1459 97.456 23.3491C97.6795 23.5523 97.9844 23.6539 98.3705 23.6539H99.5592V26.6716H97.1512Z" fill="black"/>
<path d="M80.59 27.0374C78.883 27.0374 77.5114 26.6513 76.475 25.8791C75.4386 25.0865 74.9204 23.9892 74.9204 22.587C74.9204 21.1849 75.3573 20.0875 76.2311 19.295C77.1049 18.5025 78.436 17.9335 80.2242 17.588L85.6195 16.5211C85.6195 15.3628 85.3554 14.4992 84.827 13.9302C84.2986 13.3409 83.5163 13.0462 82.4799 13.0462C81.5451 13.0462 80.8034 13.2698 80.2547 13.7168C79.7264 14.1436 79.3606 14.7634 79.1574 15.5762L75.1947 15.3933C75.5199 13.666 76.3124 12.3451 77.5723 11.4307C78.8322 10.4959 80.4681 10.0285 82.4799 10.0285C84.7965 10.0285 86.5441 10.6178 87.7228 11.7965C88.9217 12.9548 89.5212 14.6211 89.5212 16.7955V22.709C89.5212 23.1357 89.5923 23.4304 89.7346 23.5929C89.8971 23.7555 90.1308 23.8368 90.4357 23.8368H90.9538V26.6716C90.8319 26.7122 90.6287 26.7427 90.3442 26.763C90.08 26.7834 89.8057 26.7935 89.5212 26.7935C88.8506 26.7935 88.2511 26.6919 87.7228 26.4887C87.1944 26.2652 86.788 25.8892 86.5035 25.3609C86.219 24.8122 86.0768 24.0705 86.0768 23.1357L86.4121 23.3796C86.2495 24.0908 85.8939 24.7309 85.3452 25.2999C84.8168 25.8486 84.1462 26.2753 83.3334 26.5801C82.5205 26.885 81.6061 27.0374 80.59 27.0374ZM81.3826 24.2026C82.2564 24.2026 83.0083 24.0298 83.6382 23.6844C84.2682 23.3389 84.7559 22.8614 85.1013 22.2517C85.4468 21.6421 85.6195 20.9207 85.6195 20.0875V19.1731L81.413 20.0266C80.5392 20.2094 79.9093 20.4838 79.5232 20.8496C79.1574 21.195 78.9745 21.6523 78.9745 22.2212C78.9745 22.8512 79.1777 23.3389 79.5841 23.6844C80.0109 24.0298 80.6103 24.2026 81.3826 24.2026Z" fill="black"/>
</svg>
